
<svg width="10" height="10" viewBox="0 0 10 10" fill="none" xmlns="http://www.w3.org/2000/svg">
    <path d="M0 5C0 2.23858 2.23858 0 5 0C7.76142 0 10 2.23858 10 5C10 7.76142 7.76142 10 5 10C2.23858 10 0 7.76142 0 5Z" fill="#2FB9A7" />
    <path d="M5.41663 7.91686L5.41663 3.2627L7.44997 5.29603C7.61247 5.45853 7.87913 5.45853 8.04163 5.29603C8.20413 5.13353 8.20413 4.87103 8.04163 4.70853L5.2958 1.9627C5.1333 1.8002 4.8708 1.8002 4.7083 1.9627L1.9583 4.70436C1.7958 4.86686 1.7958 5.12936 1.9583 5.29186C2.1208 5.45436 2.3833 5.45436 2.5458 5.29186L4.5833 3.2627L4.5833 7.91686C4.5833 8.14603 4.7708 8.33353 4.99997 8.33353C5.22913 8.33353 5.41663 8.14603 5.41663 7.91686Z" fill="white" />
</svg>